<mxfile host="app.diagrams.net" agent="Mozilla/5.0 (Windows NT 10.0; Win64; x64) AppleWebKit/537.36 (KHTML, like Gecko) Chrome/137.0.0.0 Safari/537.36 OPR/121.0.0.0" version="28.2.4">
  <diagram name="Page-1" id="a66vnkx19Q5CA9KSzGNy">
    <mxGraphModel grid="1" page="1" gridSize="10" guides="1" tooltips="1" connect="1" arrows="1" fold="1" pageScale="1" pageWidth="850" pageHeight="1100" math="0" shadow="0">
      <root>
        <mxCell id="0" />
        <mxCell id="1" parent="0" />
        <mxCell id="ghSI4y4fjL62EXZdHeKQ-2" value="" style="rounded=0;whiteSpace=wrap;html=1;" vertex="1" parent="1">
          <mxGeometry x="280" y="160" width="240" height="180" as="geometry" />
        </mxCell>
        <mxCell id="ghSI4y4fjL62EXZdHeKQ-7" style="edgeStyle=orthogonalEdgeStyle;rounded=0;orthogonalLoop=1;jettySize=auto;html=1;entryX=0;entryY=0.5;entryDx=0;entryDy=0;" edge="1" parent="1" source="ghSI4y4fjL62EXZdHeKQ-1" target="ghSI4y4fjL62EXZdHeKQ-4">
          <mxGeometry relative="1" as="geometry" />
        </mxCell>
        <mxCell id="ghSI4y4fjL62EXZdHeKQ-8" style="edgeStyle=orthogonalEdgeStyle;rounded=0;orthogonalLoop=1;jettySize=auto;html=1;entryX=0;entryY=0.5;entryDx=0;entryDy=0;" edge="1" parent="1" source="ghSI4y4fjL62EXZdHeKQ-1" target="ghSI4y4fjL62EXZdHeKQ-5">
          <mxGeometry relative="1" as="geometry" />
        </mxCell>
        <mxCell id="ghSI4y4fjL62EXZdHeKQ-1" value="Buyer" style="shape=umlActor;verticalLabelPosition=bottom;verticalAlign=top;html=1;outlineConnect=0;" vertex="1" parent="1">
          <mxGeometry x="160" y="200" width="30" height="60" as="geometry" />
        </mxCell>
        <mxCell id="ghSI4y4fjL62EXZdHeKQ-3" value="Order Page" style="text;html=1;align=center;verticalAlign=middle;whiteSpace=wrap;rounded=0;" vertex="1" parent="1">
          <mxGeometry x="370" y="130" width="60" height="30" as="geometry" />
        </mxCell>
        <mxCell id="ghSI4y4fjL62EXZdHeKQ-4" value="Cancel Order" style="ellipse;whiteSpace=wrap;html=1;" vertex="1" parent="1">
          <mxGeometry x="355" y="180" width="90" height="50" as="geometry" />
        </mxCell>
        <mxCell id="ghSI4y4fjL62EXZdHeKQ-5" value="Return Order Page" style="ellipse;whiteSpace=wrap;html=1;" vertex="1" parent="1">
          <mxGeometry x="355" y="250" width="90" height="50" as="geometry" />
        </mxCell>
      </root>
    </mxGraphModel>
  </diagram>
</mxfile>
